<mxfile host="app.diagrams.net" modified="2023-07-02T11:09:05.371Z" agent="Mozilla/5.0 (Windows NT 10.0; Win64; x64) AppleWebKit/537.36 (KHTML, like Gecko) Chrome/114.0.0.0 Safari/537.36" etag="SngBn4Pf8vnpUrzh0WdY" version="21.5.0" type="github">
  <diagram name="Page-1" id="U-0ZlmMweivsu0v7b7MV">
    <mxGraphModel dx="1434" dy="834" grid="1" gridSize="10" guides="1" tooltips="1" connect="1" arrows="1" fold="1" page="1" pageScale="1" pageWidth="850" pageHeight="1100" math="0" shadow="0">
      <root>
        <mxCell id="0" />
        <mxCell id="1" parent="0" />
        <mxCell id="eXDTsbmthu4Ww_chsKKB-4" style="edgeStyle=orthogonalEdgeStyle;rounded=0;orthogonalLoop=1;jettySize=auto;html=1;exitX=0.5;exitY=1;exitDx=0;exitDy=0;exitPerimeter=0;" edge="1" parent="1" source="eXDTsbmthu4Ww_chsKKB-1" target="eXDTsbmthu4Ww_chsKKB-2">
          <mxGeometry relative="1" as="geometry" />
        </mxCell>
        <mxCell id="eXDTsbmthu4Ww_chsKKB-1" value="START" style="strokeWidth=2;html=1;shape=mxgraph.flowchart.start_1;whiteSpace=wrap;" vertex="1" parent="1">
          <mxGeometry x="135" y="40" width="60" height="30" as="geometry" />
        </mxCell>
        <mxCell id="eXDTsbmthu4Ww_chsKKB-6" style="edgeStyle=orthogonalEdgeStyle;rounded=0;orthogonalLoop=1;jettySize=auto;html=1;exitX=0.5;exitY=1;exitDx=0;exitDy=0;" edge="1" parent="1" source="eXDTsbmthu4Ww_chsKKB-2" target="eXDTsbmthu4Ww_chsKKB-5">
          <mxGeometry relative="1" as="geometry" />
        </mxCell>
        <mxCell id="eXDTsbmthu4Ww_chsKKB-2" value="Set &lt;b&gt;Phy&lt;/b&gt;, &lt;b&gt;Che&lt;/b&gt;, &lt;b&gt;Bio&lt;/b&gt;, &lt;b&gt;Math &lt;/b&gt;and &lt;b&gt;Comp &lt;/b&gt;as variable identifier of an integer" style="rounded=1;whiteSpace=wrap;html=1;absoluteArcSize=1;arcSize=14;strokeWidth=2;" vertex="1" parent="1">
          <mxGeometry x="50" y="100" width="230" height="50" as="geometry" />
        </mxCell>
        <mxCell id="eXDTsbmthu4Ww_chsKKB-8" style="edgeStyle=orthogonalEdgeStyle;rounded=0;orthogonalLoop=1;jettySize=auto;html=1;exitX=0.5;exitY=1;exitDx=0;exitDy=0;entryX=0.5;entryY=0;entryDx=0;entryDy=0;" edge="1" parent="1" source="eXDTsbmthu4Ww_chsKKB-5" target="eXDTsbmthu4Ww_chsKKB-7">
          <mxGeometry relative="1" as="geometry" />
        </mxCell>
        <mxCell id="eXDTsbmthu4Ww_chsKKB-5" value="&lt;h3&gt;&lt;span style=&quot;font-weight: normal;&quot;&gt;Input Physics Chemistry, Biology, Mathematics and Computer studies marks&lt;/span&gt;&lt;/h3&gt;" style="shape=parallelogram;html=1;strokeWidth=2;perimeter=parallelogramPerimeter;whiteSpace=wrap;rounded=1;arcSize=12;size=0.23;align=center;" vertex="1" parent="1">
          <mxGeometry x="20" y="180" width="290" height="50" as="geometry" />
        </mxCell>
        <mxCell id="eXDTsbmthu4Ww_chsKKB-11" style="edgeStyle=orthogonalEdgeStyle;rounded=0;orthogonalLoop=1;jettySize=auto;html=1;exitX=0.5;exitY=1;exitDx=0;exitDy=0;entryX=0.5;entryY=0;entryDx=0;entryDy=0;" edge="1" parent="1" source="eXDTsbmthu4Ww_chsKKB-7" target="eXDTsbmthu4Ww_chsKKB-9">
          <mxGeometry relative="1" as="geometry" />
        </mxCell>
        <mxCell id="eXDTsbmthu4Ww_chsKKB-7" value="Average=(Phy+Che+Bio+Maths+Comp) / 5" style="rounded=1;whiteSpace=wrap;html=1;absoluteArcSize=1;arcSize=14;strokeWidth=2;" vertex="1" parent="1">
          <mxGeometry x="35" y="270" width="260" height="40" as="geometry" />
        </mxCell>
        <mxCell id="eXDTsbmthu4Ww_chsKKB-18" style="edgeStyle=orthogonalEdgeStyle;rounded=0;orthogonalLoop=1;jettySize=auto;html=1;exitX=0.5;exitY=1;exitDx=0;exitDy=0;entryX=0.5;entryY=0;entryDx=0;entryDy=0;entryPerimeter=0;" edge="1" parent="1" source="eXDTsbmthu4Ww_chsKKB-9" target="eXDTsbmthu4Ww_chsKKB-16">
          <mxGeometry relative="1" as="geometry" />
        </mxCell>
        <mxCell id="eXDTsbmthu4Ww_chsKKB-9" value="Average" style="shape=parallelogram;html=1;strokeWidth=2;perimeter=parallelogramPerimeter;whiteSpace=wrap;rounded=1;arcSize=12;size=0.23;" vertex="1" parent="1">
          <mxGeometry x="65" y="350" width="200" height="40" as="geometry" />
        </mxCell>
        <mxCell id="eXDTsbmthu4Ww_chsKKB-20" style="edgeStyle=orthogonalEdgeStyle;rounded=0;orthogonalLoop=1;jettySize=auto;html=1;exitX=1;exitY=0.5;exitDx=0;exitDy=0;exitPerimeter=0;entryX=0;entryY=0.5;entryDx=0;entryDy=0;entryPerimeter=0;" edge="1" parent="1" source="eXDTsbmthu4Ww_chsKKB-12" target="eXDTsbmthu4Ww_chsKKB-14">
          <mxGeometry relative="1" as="geometry" />
        </mxCell>
        <mxCell id="eXDTsbmthu4Ww_chsKKB-30" style="edgeStyle=orthogonalEdgeStyle;rounded=0;orthogonalLoop=1;jettySize=auto;html=1;exitX=0.5;exitY=1;exitDx=0;exitDy=0;exitPerimeter=0;" edge="1" parent="1" source="eXDTsbmthu4Ww_chsKKB-12" target="eXDTsbmthu4Ww_chsKKB-25">
          <mxGeometry relative="1" as="geometry" />
        </mxCell>
        <mxCell id="eXDTsbmthu4Ww_chsKKB-12" value="Average&amp;gt;80" style="strokeWidth=2;html=1;shape=mxgraph.flowchart.decision;whiteSpace=wrap;" vertex="1" parent="1">
          <mxGeometry x="265" y="420" width="100" height="100" as="geometry" />
        </mxCell>
        <mxCell id="eXDTsbmthu4Ww_chsKKB-22" style="edgeStyle=orthogonalEdgeStyle;rounded=0;orthogonalLoop=1;jettySize=auto;html=1;exitX=1;exitY=0.5;exitDx=0;exitDy=0;exitPerimeter=0;entryX=0;entryY=0.5;entryDx=0;entryDy=0;entryPerimeter=0;" edge="1" parent="1" source="eXDTsbmthu4Ww_chsKKB-13" target="eXDTsbmthu4Ww_chsKKB-15">
          <mxGeometry relative="1" as="geometry" />
        </mxCell>
        <mxCell id="eXDTsbmthu4Ww_chsKKB-32" style="edgeStyle=orthogonalEdgeStyle;rounded=0;orthogonalLoop=1;jettySize=auto;html=1;exitX=0.5;exitY=1;exitDx=0;exitDy=0;exitPerimeter=0;" edge="1" parent="1" source="eXDTsbmthu4Ww_chsKKB-13" target="eXDTsbmthu4Ww_chsKKB-24">
          <mxGeometry relative="1" as="geometry" />
        </mxCell>
        <mxCell id="eXDTsbmthu4Ww_chsKKB-13" value="Average&amp;gt;60" style="strokeWidth=2;html=1;shape=mxgraph.flowchart.decision;whiteSpace=wrap;" vertex="1" parent="1">
          <mxGeometry x="570" y="420" width="100" height="100" as="geometry" />
        </mxCell>
        <mxCell id="eXDTsbmthu4Ww_chsKKB-21" style="edgeStyle=orthogonalEdgeStyle;rounded=0;orthogonalLoop=1;jettySize=auto;html=1;exitX=1;exitY=0.5;exitDx=0;exitDy=0;exitPerimeter=0;" edge="1" parent="1" source="eXDTsbmthu4Ww_chsKKB-14" target="eXDTsbmthu4Ww_chsKKB-13">
          <mxGeometry relative="1" as="geometry" />
        </mxCell>
        <mxCell id="eXDTsbmthu4Ww_chsKKB-31" style="edgeStyle=orthogonalEdgeStyle;rounded=0;orthogonalLoop=1;jettySize=auto;html=1;exitX=0.5;exitY=1;exitDx=0;exitDy=0;exitPerimeter=0;entryX=0.5;entryY=0;entryDx=0;entryDy=0;" edge="1" parent="1" source="eXDTsbmthu4Ww_chsKKB-14" target="eXDTsbmthu4Ww_chsKKB-26">
          <mxGeometry relative="1" as="geometry" />
        </mxCell>
        <mxCell id="eXDTsbmthu4Ww_chsKKB-14" value="Average&amp;gt;70" style="strokeWidth=2;html=1;shape=mxgraph.flowchart.decision;whiteSpace=wrap;" vertex="1" parent="1">
          <mxGeometry x="420" y="420" width="100" height="100" as="geometry" />
        </mxCell>
        <mxCell id="eXDTsbmthu4Ww_chsKKB-33" style="edgeStyle=orthogonalEdgeStyle;rounded=0;orthogonalLoop=1;jettySize=auto;html=1;exitX=0.5;exitY=1;exitDx=0;exitDy=0;exitPerimeter=0;entryX=0.5;entryY=0;entryDx=0;entryDy=0;" edge="1" parent="1" source="eXDTsbmthu4Ww_chsKKB-15" target="eXDTsbmthu4Ww_chsKKB-27">
          <mxGeometry relative="1" as="geometry" />
        </mxCell>
        <mxCell id="eXDTsbmthu4Ww_chsKKB-36" style="edgeStyle=orthogonalEdgeStyle;rounded=0;orthogonalLoop=1;jettySize=auto;html=1;exitX=1;exitY=0.5;exitDx=0;exitDy=0;exitPerimeter=0;" edge="1" parent="1" source="eXDTsbmthu4Ww_chsKKB-15" target="eXDTsbmthu4Ww_chsKKB-35">
          <mxGeometry relative="1" as="geometry" />
        </mxCell>
        <mxCell id="eXDTsbmthu4Ww_chsKKB-15" value="Average&amp;gt;40" style="strokeWidth=2;html=1;shape=mxgraph.flowchart.decision;whiteSpace=wrap;" vertex="1" parent="1">
          <mxGeometry x="720" y="420" width="100" height="100" as="geometry" />
        </mxCell>
        <mxCell id="eXDTsbmthu4Ww_chsKKB-19" style="edgeStyle=orthogonalEdgeStyle;rounded=0;orthogonalLoop=1;jettySize=auto;html=1;exitX=1;exitY=0.5;exitDx=0;exitDy=0;exitPerimeter=0;entryX=0;entryY=0.5;entryDx=0;entryDy=0;entryPerimeter=0;" edge="1" parent="1" source="eXDTsbmthu4Ww_chsKKB-16" target="eXDTsbmthu4Ww_chsKKB-12">
          <mxGeometry relative="1" as="geometry" />
        </mxCell>
        <mxCell id="eXDTsbmthu4Ww_chsKKB-28" style="edgeStyle=orthogonalEdgeStyle;rounded=0;orthogonalLoop=1;jettySize=auto;html=1;exitX=0.5;exitY=1;exitDx=0;exitDy=0;exitPerimeter=0;entryX=0.556;entryY=0;entryDx=0;entryDy=0;entryPerimeter=0;" edge="1" parent="1" source="eXDTsbmthu4Ww_chsKKB-16" target="eXDTsbmthu4Ww_chsKKB-23">
          <mxGeometry relative="1" as="geometry" />
        </mxCell>
        <mxCell id="eXDTsbmthu4Ww_chsKKB-16" value="Average&amp;gt;90" style="strokeWidth=2;html=1;shape=mxgraph.flowchart.decision;whiteSpace=wrap;" vertex="1" parent="1">
          <mxGeometry x="115" y="420" width="100" height="100" as="geometry" />
        </mxCell>
        <mxCell id="eXDTsbmthu4Ww_chsKKB-48" style="edgeStyle=orthogonalEdgeStyle;rounded=0;orthogonalLoop=1;jettySize=auto;html=1;exitX=0.5;exitY=1;exitDx=0;exitDy=0;entryX=0;entryY=0.5;entryDx=0;entryDy=0;entryPerimeter=0;" edge="1" parent="1" source="eXDTsbmthu4Ww_chsKKB-23" target="eXDTsbmthu4Ww_chsKKB-47">
          <mxGeometry relative="1" as="geometry" />
        </mxCell>
        <mxCell id="eXDTsbmthu4Ww_chsKKB-23" value="&lt;h2&gt;&lt;span style=&quot;font-weight: normal;&quot;&gt;The grade of the student is A&lt;/span&gt;&lt;/h2&gt;" style="shape=parallelogram;html=1;strokeWidth=2;perimeter=parallelogramPerimeter;whiteSpace=wrap;rounded=1;arcSize=12;size=0.23;" vertex="1" parent="1">
          <mxGeometry x="65" y="560" width="180" height="60" as="geometry" />
        </mxCell>
        <mxCell id="eXDTsbmthu4Ww_chsKKB-51" style="edgeStyle=orthogonalEdgeStyle;rounded=0;orthogonalLoop=1;jettySize=auto;html=1;exitX=0.5;exitY=1;exitDx=0;exitDy=0;entryX=0.855;entryY=0.145;entryDx=0;entryDy=0;entryPerimeter=0;" edge="1" parent="1" source="eXDTsbmthu4Ww_chsKKB-24" target="eXDTsbmthu4Ww_chsKKB-47">
          <mxGeometry relative="1" as="geometry" />
        </mxCell>
        <mxCell id="eXDTsbmthu4Ww_chsKKB-24" value="&lt;h2&gt;&lt;span style=&quot;font-weight: normal;&quot;&gt;The grade of the student is D&lt;/span&gt;&lt;/h2&gt;" style="shape=parallelogram;html=1;strokeWidth=2;perimeter=parallelogramPerimeter;whiteSpace=wrap;rounded=1;arcSize=12;size=0.23;" vertex="1" parent="1">
          <mxGeometry x="530" y="560" width="180" height="60" as="geometry" />
        </mxCell>
        <mxCell id="eXDTsbmthu4Ww_chsKKB-49" style="edgeStyle=orthogonalEdgeStyle;rounded=0;orthogonalLoop=1;jettySize=auto;html=1;exitX=0.5;exitY=1;exitDx=0;exitDy=0;entryX=0.145;entryY=0.145;entryDx=0;entryDy=0;entryPerimeter=0;" edge="1" parent="1" source="eXDTsbmthu4Ww_chsKKB-25" target="eXDTsbmthu4Ww_chsKKB-47">
          <mxGeometry relative="1" as="geometry">
            <Array as="points">
              <mxPoint x="315" y="669" />
            </Array>
          </mxGeometry>
        </mxCell>
        <mxCell id="eXDTsbmthu4Ww_chsKKB-25" value="&lt;h2&gt;&lt;span style=&quot;font-weight: normal;&quot;&gt;The grade of the student is B&lt;/span&gt;&lt;/h2&gt;" style="shape=parallelogram;html=1;strokeWidth=2;perimeter=parallelogramPerimeter;whiteSpace=wrap;rounded=1;arcSize=12;size=0.23;" vertex="1" parent="1">
          <mxGeometry x="225" y="560" width="180" height="60" as="geometry" />
        </mxCell>
        <mxCell id="eXDTsbmthu4Ww_chsKKB-50" style="edgeStyle=orthogonalEdgeStyle;rounded=0;orthogonalLoop=1;jettySize=auto;html=1;exitX=0.5;exitY=1;exitDx=0;exitDy=0;entryX=0.5;entryY=0;entryDx=0;entryDy=0;entryPerimeter=0;" edge="1" parent="1" source="eXDTsbmthu4Ww_chsKKB-26" target="eXDTsbmthu4Ww_chsKKB-47">
          <mxGeometry relative="1" as="geometry" />
        </mxCell>
        <mxCell id="eXDTsbmthu4Ww_chsKKB-26" value="&lt;h2&gt;&lt;span style=&quot;font-weight: normal;&quot;&gt;The grade of the student is C&lt;/span&gt;&lt;/h2&gt;" style="shape=parallelogram;html=1;strokeWidth=2;perimeter=parallelogramPerimeter;whiteSpace=wrap;rounded=1;arcSize=12;size=0.23;" vertex="1" parent="1">
          <mxGeometry x="380" y="560" width="180" height="60" as="geometry" />
        </mxCell>
        <mxCell id="eXDTsbmthu4Ww_chsKKB-55" style="edgeStyle=orthogonalEdgeStyle;rounded=0;orthogonalLoop=1;jettySize=auto;html=1;exitX=0.5;exitY=1;exitDx=0;exitDy=0;entryX=1;entryY=0.5;entryDx=0;entryDy=0;entryPerimeter=0;" edge="1" parent="1" source="eXDTsbmthu4Ww_chsKKB-27" target="eXDTsbmthu4Ww_chsKKB-47">
          <mxGeometry relative="1" as="geometry" />
        </mxCell>
        <mxCell id="eXDTsbmthu4Ww_chsKKB-27" value="&lt;h2&gt;&lt;span style=&quot;font-weight: normal;&quot;&gt;The grade of the student is E&lt;/span&gt;&lt;/h2&gt;" style="shape=parallelogram;html=1;strokeWidth=2;perimeter=parallelogramPerimeter;whiteSpace=wrap;rounded=1;arcSize=12;size=0.23;" vertex="1" parent="1">
          <mxGeometry x="680" y="560" width="180" height="60" as="geometry" />
        </mxCell>
        <mxCell id="eXDTsbmthu4Ww_chsKKB-54" style="edgeStyle=orthogonalEdgeStyle;rounded=0;orthogonalLoop=1;jettySize=auto;html=1;exitX=0.5;exitY=1;exitDx=0;exitDy=0;entryX=0.855;entryY=0.855;entryDx=0;entryDy=0;entryPerimeter=0;" edge="1" parent="1" source="eXDTsbmthu4Ww_chsKKB-35" target="eXDTsbmthu4Ww_chsKKB-47">
          <mxGeometry relative="1" as="geometry">
            <Array as="points">
              <mxPoint x="920" y="711" />
            </Array>
          </mxGeometry>
        </mxCell>
        <mxCell id="eXDTsbmthu4Ww_chsKKB-35" value="&lt;h2&gt;&lt;span style=&quot;font-weight: normal;&quot;&gt;The grade of the student is F&lt;/span&gt;&lt;/h2&gt;" style="shape=parallelogram;html=1;strokeWidth=2;perimeter=parallelogramPerimeter;whiteSpace=wrap;rounded=1;arcSize=12;size=0.23;" vertex="1" parent="1">
          <mxGeometry x="830" y="560" width="180" height="60" as="geometry" />
        </mxCell>
        <mxCell id="eXDTsbmthu4Ww_chsKKB-37" value="NO" style="text;strokeColor=none;align=center;fillColor=none;html=1;verticalAlign=middle;whiteSpace=wrap;rounded=0;" vertex="1" parent="1">
          <mxGeometry x="205" y="440" width="60" height="30" as="geometry" />
        </mxCell>
        <mxCell id="eXDTsbmthu4Ww_chsKKB-38" value="YES" style="text;strokeColor=none;align=center;fillColor=none;html=1;verticalAlign=middle;whiteSpace=wrap;rounded=0;" vertex="1" parent="1">
          <mxGeometry x="155" y="520" width="60" height="30" as="geometry" />
        </mxCell>
        <mxCell id="eXDTsbmthu4Ww_chsKKB-39" value="NO" style="text;strokeColor=none;align=center;fillColor=none;html=1;verticalAlign=middle;whiteSpace=wrap;rounded=0;" vertex="1" parent="1">
          <mxGeometry x="810" y="440" width="60" height="30" as="geometry" />
        </mxCell>
        <mxCell id="eXDTsbmthu4Ww_chsKKB-40" value="NO" style="text;strokeColor=none;align=center;fillColor=none;html=1;verticalAlign=middle;whiteSpace=wrap;rounded=0;" vertex="1" parent="1">
          <mxGeometry x="650" y="440" width="60" height="30" as="geometry" />
        </mxCell>
        <mxCell id="eXDTsbmthu4Ww_chsKKB-41" value="NO" style="text;strokeColor=none;align=center;fillColor=none;html=1;verticalAlign=middle;whiteSpace=wrap;rounded=0;" vertex="1" parent="1">
          <mxGeometry x="500" y="440" width="60" height="30" as="geometry" />
        </mxCell>
        <mxCell id="eXDTsbmthu4Ww_chsKKB-42" value="NO" style="text;strokeColor=none;align=center;fillColor=none;html=1;verticalAlign=middle;whiteSpace=wrap;rounded=0;" vertex="1" parent="1">
          <mxGeometry x="345" y="440" width="60" height="30" as="geometry" />
        </mxCell>
        <mxCell id="eXDTsbmthu4Ww_chsKKB-43" value="YES" style="text;strokeColor=none;align=center;fillColor=none;html=1;verticalAlign=middle;whiteSpace=wrap;rounded=0;" vertex="1" parent="1">
          <mxGeometry x="460" y="520" width="60" height="30" as="geometry" />
        </mxCell>
        <mxCell id="eXDTsbmthu4Ww_chsKKB-44" value="YES" style="text;strokeColor=none;align=center;fillColor=none;html=1;verticalAlign=middle;whiteSpace=wrap;rounded=0;" vertex="1" parent="1">
          <mxGeometry x="610" y="520" width="60" height="30" as="geometry" />
        </mxCell>
        <mxCell id="eXDTsbmthu4Ww_chsKKB-45" value="YES" style="text;strokeColor=none;align=center;fillColor=none;html=1;verticalAlign=middle;whiteSpace=wrap;rounded=0;" vertex="1" parent="1">
          <mxGeometry x="760" y="520" width="60" height="30" as="geometry" />
        </mxCell>
        <mxCell id="eXDTsbmthu4Ww_chsKKB-46" value="YES" style="text;strokeColor=none;align=center;fillColor=none;html=1;verticalAlign=middle;whiteSpace=wrap;rounded=0;" vertex="1" parent="1">
          <mxGeometry x="305" y="520" width="60" height="30" as="geometry" />
        </mxCell>
        <mxCell id="eXDTsbmthu4Ww_chsKKB-57" style="edgeStyle=orthogonalEdgeStyle;rounded=0;orthogonalLoop=1;jettySize=auto;html=1;exitX=0.5;exitY=1;exitDx=0;exitDy=0;exitPerimeter=0;entryX=0.5;entryY=0;entryDx=0;entryDy=0;entryPerimeter=0;" edge="1" parent="1" source="eXDTsbmthu4Ww_chsKKB-47" target="eXDTsbmthu4Ww_chsKKB-56">
          <mxGeometry relative="1" as="geometry" />
        </mxCell>
        <mxCell id="eXDTsbmthu4Ww_chsKKB-47" value="" style="verticalLabelPosition=bottom;verticalAlign=top;html=1;shape=mxgraph.flowchart.on-page_reference;" vertex="1" parent="1">
          <mxGeometry x="500" y="660" width="60" height="60" as="geometry" />
        </mxCell>
        <mxCell id="eXDTsbmthu4Ww_chsKKB-56" value="STOP" style="strokeWidth=2;html=1;shape=mxgraph.flowchart.start_1;whiteSpace=wrap;" vertex="1" parent="1">
          <mxGeometry x="500" y="770" width="60" height="30" as="geometry" />
        </mxCell>
      </root>
    </mxGraphModel>
  </diagram>
</mxfile>
